PathFileType	3	(X/Y/Z)	D:\Jess\PFP\Labelled\PA03\20250519\SRRun01.trc
DataRate	CameraRate	NumFrames	NumMarkers	Units	OrigDataRate	OrigDataStartFrame	OrigNumFrames
250.0	250.0	4	33	mm	250.0	36875	2501
Frame#	Time	C7			T10			CLAV			LSHO			RSHO			LASIS			RASIS			LPSIS			RPSIS			LILCR			RILCR			LGTR			LTHI			LLTHI			LLEP			LPSH			LLSH			LDSH			LLMAL			LTOE			L5TH			LHEE			RGTR			RTHI			RLTHI			RLEP			RPSH			RLSH			RDSH			RLMAL			RTOE			R5TH			RHEE			
		X1	Y1	Z1	X2	Y2	Z2	X3	Y3	Z3	X4	Y4	Z4	X5	Y5	Z5	X6	Y6	Z6	X7	Y7	Z7	X8	Y8	Z8	X9	Y9	Z9	X10	Y10	Z10	X11	Y11	Z11	X12	Y12	Z12	X13	Y13	Z13	X14	Y14	Z14	X15	Y15	Z15	X16	Y16	Z16	X17	Y17	Z17	X18	Y18	Z18	X19	Y19	Z19	X20	Y20	Z20	X21	Y21	Z21	X22	Y22	Z22	X23	Y23	Z23	X24	Y24	Z24	X25	Y25	Z25	X26	Y26	Z26	X27	Y27	Z27	X28	Y28	Z28	X29	Y29	Z29	X30	Y30	Z30	X31	Y31	Z31	X32	Y32	Z32	X33	Y33	Z33	

1876	147.496	604.2499784961701	1519.225198776769	-268.7982821322918	500.6525641703961	1305.41116068452	-223.7097262622883	713.1320849032102	1409.177738877361	-305.2254256397275	597.300995164512	1474.258554654893	-432.9491507872643	694.619965268965	1481.680967445015	-143.6731978369519	636.0813648005072	1012.370868400012	-380.4117304408976	668.2932040823581	999.8389625712268	-131.672719653924	478.1129530249492	1068.529392631114	-257.800493217426	484.7327582625947	1071.134285938845	-216.8822667618498	560.4796790184104	1082.881754612788	-410.0219609391802	623.3279049948218	1091.487367433158	-101.851661703399	557.8925449219549	926.6821519906795	-426.6082289826774	737.5342802243056	784.2207037228366	-355.405269001474	670.7985429005058	663.5253421214138	-410.7649193855839	715.7490063134293	523.3907756716566	-392.1886221394045	788.4152068539423	451.8812500379002	-350.9731712102425	720.6496946512552	325.9034733729595	-407.9580341350701	792.2310064831015	237.3989071975046	-357.1909215656938	737.9385263471503	125.683922360893	-390.4795701148858	897.2800006617897	81.11464665799704	-373.4145928723424	869.1642350703561	39.45680532820233	-408.769355167276	686.7337332340843	91.76080336514732	-341.2546692659225	595.1307241688995	914.1423363737363	-75.046127518072	626.8551911326333	712.6309911393543	-178.6582365833532	511.7285904339923	667.9237024808401	-104.0015592769137	439.8906172323947	535.0317864996493	-130.5482565838465	380.831775398036	440.4813957795498	-181.8110061896154	247.6284979903612	434.7174862573733	-113.775589869673	190.3797899186481	351.3351427350252	-166.0037206014938	74.98997471964458	344.7314644759329	-121.0536958070335	49.77145525529331	190.0381493352863	-145.0689508269681	20.19955048208161	216.8201669351287	-105.9632634664048	35.7775953834292	404.8151455525573	-166.5909879602437	
1877	147.5	603.506462476347	1516.605780629627	-270.0805840600156	499.7030341666649	1302.6079369041	-225.4027758136352	712.7711812259768	1406.417797563034	-305.568407591319	597.7223687774726	1471.426209589496	-434.1514850355447	693.1347021852471	1479.213510463826	-144.1508447903395	636.2952735001442	1009.620177329577	-381.1057308176077	668.4454747059116	997.9507040670845	-131.7144452034296	477.9459624067034	1064.600020745494	-258.292175538997	484.5228499062609	1067.302791864997	-217.3811268352166	559.9678482195684	1078.952272190164	-410.5250242855871	622.4317528963591	1089.278706066097	-101.7504712500351	558.1042478416749	923.0454832186515	-426.5286190327358	739.068432851526	781.9098115772263	-356.9965530927609	671.6828740550857	660.9966310145635	-411.4886878669067	715.5963502138063	520.6203692979904	-393.2421914417966	787.3521464471022	448.2696667049552	-352.2954642537257	717.0124823537526	323.1617605107125	-408.085580502954	786.8012580161729	233.7607373946897	-356.7838345970999	730.2391464422644	123.3489768920079	-389.553963864464	889.1583253294866	78.36283986846161	-372.8927408054257	860.5798903974361	37.47409247639302	-408.8302016628445	678.4279920891242	89.82164129486051	-340.4456094977735	595.7853468610925	911.4249119515947	-75.25516000879652	629.7524644154392	710.0424005033422	-177.9310288152787	514.8921738445543	664.0642342916462	-103.889988443984	444.7095507983707	530.9826160971425	-130.4616143364026	384.5179995874366	437.2074494817074	-181.279479518494	250.7638674236845	435.5636862274561	-113.8347737692128	191.4542577142155	353.4407427577538	-165.8138365275512	75.88076091773657	350.226606194356	-121.1780195598299	45.81200675955492	196.6640495084653	-145.2391521073397	16.98496110968698	224.4421995770736	-106.3316686248914	38.94313526012719	411.2430576011741	-166.8466331517202	
1878	147.504	602.7231201692401	1513.879291549826	-271.3602931912528	498.7091127003935	1299.653778036726	-227.1216340222693	712.3953090080929	1403.533173028319	-305.8718293174048	598.1490945958249	1468.462720313423	-435.3689469946183	691.5470389315683	1476.629628841632	-144.563626650996	636.5288657057554	1006.864449765133	-381.7835288652807	668.5476964597506	995.8337801900049	-131.7370834398195	477.7517755767515	1060.554687976245	-258.7080954258498	484.2752746308552	1063.297793447508	-217.811550791313	559.4208162482441	1074.961698069538	-411.0594205720348	621.5292456595039	1086.808551691062	-101.6080546118103	558.3849294072822	919.5860442021896	-426.5644199223179	740.5437803223944	779.5932779843035	-358.6700901062271	672.3685880203657	658.5032678365287	-412.2278305146075	715.301924434615	517.8021229266492	-394.2415674768657	786.1042393803965	444.5397828923105	-353.5059799192808	713.0424027069593	320.4307466996424	-408.062046596417	780.8316292534366	230.1096927043089	-356.0980499318092	721.8645926912645	121.1163372402852	-388.3446203710231	880.3421402138185	75.79641957608848	-372.207835777561	851.299193897618	35.72859838268556	-408.7773540409959	669.4053702417165	87.92749966351138	-339.388340633448	596.3937251485966	908.4643755126315	-75.47314064451453	632.630882667132	707.3236804639881	-177.1079665891108	518.0589685119494	660.0519324277604	-103.7313038851551	449.653988072885	526.7956379875811	-130.2773008776795	388.4777786946186	433.838456533349	-180.6928083951314	254.2796078061628	436.2027933909436	-113.8436437001634	192.9872043294773	355.3826504234402	-165.6133052099505	77.34247470746652	355.5513385096503	-121.309070648446	42.23322576229118	203.313913872757	-145.4457711150671	14.17511125409355	232.1182739657172	-106.7726698488966	42.87588795893864	417.471384018916	-167.1617610199718	
1879	147.508	601.9085389940317	1511.06579619301	-272.6349287871079	497.6752538218315	1296.569013335233	-228.8616914454549	712.0102794549501	1400.541614545434	-306.1367924053687	598.5746223220784	1465.382035102693	-436.6018954059265	689.8657422016615	1473.943540458131	-144.9054180391605	636.7734101011733	1004.119810720831	-382.4450499626569	668.5945423621972	993.4928254078862	-131.7469812569403	477.5237698794612	1056.429331326581	-259.0411064747641	483.982853718173	1059.149838904687	-218.1655933451472	558.8517531407931	1070.947607215142	-411.6262691557502	620.6222359909987	1084.08074087494	-101.4274414720863	558.7205263928522	916.331103676355	-426.7199818727048	741.9103440245336	777.2492678017981	-360.4088048994028	672.8157285873053	656.0380465756962	-412.9732189266566	714.8516322065935	514.9550939385787	-395.1751002533988	784.6595902615549	440.7298784609816	-354.5714079772842	708.7734857605017	317.7509361920229	-407.8974213104691	774.3727543822371	226.5020690662693	-355.1505771868747	712.9057581592969	119.0257373124274	-386.8879383679925	870.921672922483	73.45717019793555	-371.3848087002139	841.4223855761355	34.24877240867681	-408.6235350737012	659.7623475664835	86.10847236382425	-338.1195205365117	596.9665939914377	905.2719148386581	-75.70392207275229	635.4891648364032	704.4994627873192	-176.2067140037229	521.2367085571901	655.9054444520923	-103.530939657632	454.7276208315179	522.4911896052154	-130.0022501539859	392.7103866466058	430.396916339486	-180.0664705535072	258.1695866718147	436.629595016322	-113.8097830219557	194.9791603468271	357.1560880444612	-165.4173279101548	79.37522491411002	360.6825830989052	-121.4538473443646	39.08032267084733	209.9632466137469	-145.6913846525975	11.81795757022977	239.8139031688165	-107.2812655855033	47.55136624491993	423.4628698554924	-167.539146381523	
